# xmcd
#
# Track frame offsets: 
#        150
#        25571
#        53075
#        94107
#        122233
#        157283
#        189956
#        225007
#        265251
#
# Disc length: 4408 seconds
#
# Revision: 0
# Processed by: cddbd v1.5.2PL0 Copyright (c) Steve Scherf et al.
# Submitted via: ExactAudioCopy v0.99pb4
#
DISCID=67113609
DTITLE=Super Biton De Segou - Anthology
DYEAR=1977
DGENRE=Afro
TTITLE0=Siseni
TTITLE1=Malamini
TTITLE2=Allioune Sissoko
TTITLE3=Saajuru
TTITLE4=So Karafe
TTITLE5=Taasi Doni
TTITLE6=Yere Jabo
TTITLE7=Nyeleni
TTITLE8=Nyangaran Foli
EXTD=
EXTT0=
EXTT1=
EXTT2=
EXTT3=
EXTT4=
EXTT5=
EXTT6=
EXTT7=
EXTT8=
PLAYORDER=
